<?xml version="1.0" encoding="utf-8" ?>
<svg xmlns="http://www.w3.org/2000/svg" xmlns:xlink="http://www.w3.org/1999/xlink" width="512" height="512">
	<path fill="#4361EE" d="M343.517 410.085C380.768 408.09 403.519 448.08 381.064 476.903C373.237 486.95 362.055 492.542 349.561 494.136L349.241 494.189C347.092 494.407 344.844 494.206 342.705 493.98C309.632 490.474 291.43 451.409 312.95 425.541C320.946 415.929 331.211 411.23 343.517 410.085Z"/>
	<path fill="#4361EE" d="M167.042 410.126L167.727 410.097C179.115 409.921 189.767 413.255 198.016 421.347C226.154 448.947 204.881 494.081 168.461 494.293C132.697 494.797 110.719 452.07 135.438 424.35C144.083 414.655 154.315 410.885 167.042 410.126Z"/>
	<path fill="#7B90F3" d="M248.729 24.8649C250.845 23.2645 253.345 22.1003 255.75 20.9977C274.981 12.1815 296.296 13.98 313.909 25.6109C315.606 26.7316 317.587 27.9654 319.049 29.3713C325.026 33.9405 329.452 39.7193 333.276 46.1224L336.761 53.1988C338.063 56.0025 338.732 59.224 339.31 62.2427L339.465 63.25C340.007 67.2426 340.674 79.4091 338.42 82.9921L358.544 83.2455C368.634 83.2557 379.611 82.0759 385.993 91.75L386.228 92.0996C391.258 99.7372 394.008 123.773 395.826 133.335L401.631 161.758L158.186 161.856C159.324 158.054 159.955 154.091 160.683 150.192L169.887 103.919C173.031 87.9162 177.025 83.2694 194.587 83.2604L212.681 83.2843C215.546 83.2952 218.484 83.5085 221.337 83.3156C221.037 73.8497 220.603 64.6423 223.599 55.4278C227.312 44.0075 237.681 30.5048 248.729 24.8649ZM248.729 24.8649C237.681 30.5048 227.312 44.0075 223.599 55.4278C220.603 64.6423 221.037 73.8497 221.801 83.397L222.274 83.375C222.682 84.523 222.449 86.0319 222.526 87.25L223.338 113.713L235.532 113.743C237.215 113.747 240.023 114.077 241.503 113.438L241.505 96.759C241.514 92.3679 241.165 87.2766 242.429 83.0837L318.064 83.417L318.538 112.974L337.015 112.935L337.269 88.625C337.378 87.4217 337.557 83.6989 338.42 82.9921C340.674 79.4091 340.007 67.2426 339.465 63.25L339.31 62.2427C338.732 59.224 338.063 56.0025 336.761 53.1988L333.276 46.1224C329.452 39.7193 325.026 33.9405 319.049 29.3713C317.587 27.9654 315.606 26.7316 313.909 25.6109C296.296 13.98 274.981 12.1815 255.75 20.9977C253.345 22.1003 250.845 23.2645 248.729 24.8649ZM318.538 112.966L318.444 113.212C316.335 118.631 313.293 122.323 316.021 128.391C320.886 139.213 335.687 136.782 339.144 126.406C340.569 122.128 337.263 117.437 337.002 112.965L318.538 112.966ZM223.338 113.668L223.238 113.935C222.634 115.51 221.723 116.907 221.087 118.461C214.538 134.457 239.262 142.283 243.946 126.883C245.468 121.876 242.005 118.21 241.559 113.438C240.023 114.077 237.215 113.747 235.532 113.743L223.338 113.668Z"/>
	<defs>
		<linearGradient id="gradient_0" gradientUnits="userSpaceOnUse" x1="283.45395" y1="15.247451" x2="277.84763" y2="116.52238">
			<stop offset="0" stop-color="#88DAFC"/>
			<stop offset="1" stop-color="#D5F6FD"/>
		</linearGradient>
	</defs>
	<path fill="url(#gradient_0)" d="M248.729 24.8649C250.845 23.2645 253.345 22.1003 255.75 20.9977C274.981 12.1815 296.296 13.98 313.909 25.6109C315.606 26.7316 317.587 27.9654 319.049 29.3713C325.026 33.9405 329.452 39.7193 333.276 46.1224L336.761 53.1988C338.063 56.0025 338.732 59.224 339.31 62.2427L339.465 63.25C340.007 67.2426 340.674 79.4091 338.42 82.9921C337.557 83.6989 337.378 87.4217 337.269 88.625L337.015 112.935L318.538 112.974L318.064 83.417L242.429 83.0837C241.165 87.2766 241.514 92.3679 241.505 96.759L241.503 113.438C240.023 114.077 237.215 113.747 235.532 113.743L223.338 113.713L222.526 87.25C222.449 86.0319 222.682 84.523 222.274 83.375L221.801 83.397C221.037 73.8497 220.603 64.6423 223.599 55.4278C227.312 44.0075 237.681 30.5048 248.729 24.8649ZM242.429 83.0837L317.887 83.417C317.266 81.0876 317.656 77.823 317.587 75.375C316.796 47.2053 284.836 28.6844 261.069 44.5257C251.283 51.0488 245.248 59.9214 243.634 71.6255L242.926 78.125C242.814 79.5742 242.846 81.1276 242.538 82.5478L242.429 83.0837Z"/>
	<defs>
		<linearGradient id="gradient_1" gradientUnits="userSpaceOnUse" x1="255.92783" y1="406.1666" x2="256.29172" y2="148.03375">
			<stop offset="0" stop-color="#5E77F7"/>
			<stop offset="1" stop-color="#8DA3F6"/>
		</linearGradient>
	</defs>
	<path fill="url(#gradient_1)" d="M29.1636 147.346C38.416 146.74 57.0115 146.606 65.7667 147.663C84.3055 149.902 101.279 161.881 106.377 180.164C107.748 180.529 109.783 180.272 111.22 180.271L480.551 180.234C491.698 180.687 499.5 192.46 493.625 203.009C490.447 208.714 486.271 214.047 482.785 219.606L421.819 326.152C417.11 334.151 413.305 343.378 406.658 349.991C394.943 361.647 377.771 359.196 362.706 359.204L158.993 359.223L146.333 359.248C136.41 359.305 132.281 360.197 128.618 371.097C129.176 372.961 129.901 374.573 131.597 375.663L131.936 375.875C134.589 377.592 139.867 377.517 142.967 377.643L385.863 377.733C388.554 377.737 391.433 377.474 394.022 378.314C409.427 383.315 410.846 401.287 394.875 405.512L393 405.962C389.273 406.662 384.964 406.275 381.149 406.276L148.745 406.755C136.347 406.733 123.38 406.635 112.699 399.352C97.024 388.664 95.9138 378.124 94.4385 361.494L79.4165 198.862C76.9204 174.382 75.7474 172.149 51.9731 172.194L36.1673 172.223C31.2827 172.229 26.4337 172.646 22.1986 169.691C12.0086 162.582 16.7054 149.118 29.1636 147.346Z"/>
	<path fill="white" d="M160.213 279.587L372.893 279.519C376.285 279.521 379.839 279.342 383.206 279.752L383.625 279.807C384.578 279.921 385.22 280.146 386.08 280.596L386.49 280.815C395.669 285.662 393.378 296.335 383.56 298.445C380.419 298.647 377.154 298.462 374.002 298.456L162.001 298.442C156.815 298.325 152.533 294.174 151.543 289.075C150.716 284.817 156.68 280.274 160.213 279.587Z"/>
	<path fill="white" d="M191.994 217.884L397.814 217.852C400.195 217.846 402.756 217.655 405.121 217.942C418.461 219.565 416.262 237.504 403.324 237.322L373.375 237.244L164.918 237.247C162.96 237.246 160.623 237.479 158.736 236.935C149.533 234.286 147.789 223.326 156.556 218.995L156.866 218.844C160.545 216.89 166.34 217.943 170.372 217.939L191.994 217.884Z"/>
</svg>
